<svg width="40" height="33" viewBox="0 0 40 33" fill="none" xmlns="http://www.w3.org/2000/svg">
<g filter="url(#filter0_d_502_5467)">
<path fill-rule="evenodd" clip-rule="evenodd" d="M4 16.4004C4 7.56384 11.1634 0.400391 20 0.400391C28.8366 0.400391 36 7.56384 36 16.4004C36 25.2369 28.8366 32.4004 20 32.4004C11.1634 32.4004 4 25.2369 4 16.4004Z" fill="#E5F4F2"/>
<path fill-rule="evenodd" clip-rule="evenodd" d="M22.3722 12.8468H26.8917V11.5519H22.3722V12.8468ZM23.4429 15.6721C23.1549 15.9651 22.9733 16.3621 22.899 16.863H26.4141C26.377 16.3284 26.1944 15.9245 25.8712 15.6464C25.5441 15.3702 25.1417 15.2326 24.6601 15.2326C24.1383 15.2326 23.7309 15.3791 23.4429 15.6721ZM26.4933 13.9338C27.0382 14.1733 27.4868 14.5535 27.84 15.0722C28.1621 15.5296 28.3688 16.0602 28.4631 16.6631C28.5183 17.0155 28.5404 17.5263 28.5314 18.1905H22.8488C22.8829 18.9617 23.1518 19.5032 23.6656 19.8131C23.9767 20.0061 24.351 20.1031 24.7905 20.1031C25.2531 20.1031 25.6314 19.9853 25.9214 19.7507C26.0809 19.623 26.2214 19.4468 26.3418 19.2211H28.424C28.3688 19.6764 28.1159 20.1407 27.6684 20.6119C26.97 21.3594 25.9916 21.7336 24.7343 21.7336C23.6957 21.7336 22.7796 21.4188 21.9878 20.7872C21.1921 20.1566 20.7967 19.129 20.7967 17.7074C20.7967 16.374 21.155 15.3514 21.8704 14.6396C22.5879 13.9298 23.5161 13.5724 24.659 13.5724C25.3384 13.5724 25.9495 13.6932 26.4933 13.9338ZM13.5689 16.8907V19.6656H16.1297C16.5873 19.6656 16.9445 19.6042 17.1984 19.4824C17.661 19.2547 17.8918 18.8231 17.8918 18.1836C17.8918 17.6411 17.669 17.2699 17.2204 17.0669C16.9696 16.9541 16.6174 16.8947 16.1658 16.8907H13.5689ZM13.5689 12.8735V15.1692H16.1337C16.5903 15.1692 16.9626 15.0831 17.2495 14.9108C17.5345 14.7386 17.678 14.4337 17.678 13.9981C17.678 13.512 17.4894 13.1923 17.1121 13.0359C16.7849 12.928 16.3695 12.8735 15.8648 12.8735H13.5689ZM19.2966 12.1756C19.6187 12.6181 19.7803 13.1468 19.7803 13.7635C19.7803 14.3981 19.6187 14.9099 19.2926 15.2959C19.11 15.5118 18.842 15.7097 18.4878 15.8879C19.0257 16.082 19.4311 16.3879 19.707 16.8066C19.98 17.2244 20.1174 17.7332 20.1174 18.3311C20.1174 18.9479 19.9609 19.5012 19.6468 19.9903C19.4481 20.314 19.1993 20.5872 18.9002 20.809C18.5641 21.0634 18.1677 21.2366 17.7091 21.3316C17.2506 21.4257 16.7549 21.4712 16.219 21.4712H11.4667V11.0669H16.5632C17.8496 11.0857 18.7598 11.455 19.2966 12.1756Z" fill="#2D2D2D"/>
</g>
<defs>
<filter id="filter0_d_502_5467" x="0" y="0.400391" width="40" height="40" filterUnits="userSpaceOnUse" color-interpolation-filters="sRGB">
<feFlood flood-opacity="0" result="BackgroundImageFix"/>
<feColorMatrix in="SourceAlpha" type="matrix" values="0 0 0 0 0 0 0 0 0 0 0 0 0 0 0 0 0 0 127 0" result="hardAlpha"/>
<feOffset dy="4"/>
<feGaussianBlur stdDeviation="2"/>
<feComposite in2="hardAlpha" operator="out"/>
<feColorMatrix type="matrix" values="0 0 0 0 0 0 0 0 0 0 0 0 0 0 0 0 0 0 0.25 0"/>
<feBlend mode="normal" in2="BackgroundImageFix" result="effect1_dropShadow_502_5467"/>
<feBlend mode="normal" in="SourceGraphic" in2="effect1_dropShadow_502_5467" result="shape"/>
</filter>
</defs>
</svg>
